<svg aria-hidden="true" style="width:0;height:0;position:absolute;overflow:hidden" xmlns="http://www.w3.org/2000/svg"><defs><symbol id="icon-heart" viewBox="0 0 32 32"><path fill="#ff6b08" style="fill:var(--color1,#ff6b08)" d="m16 30.144-2.24-2.217C5.44 20.64 0 15.726 0 9.71 0 4.793 3.84.995 8.8.995c2.72.002 5.44 1.269 7.2 3.326A9.64 9.64 0 0 1 23.195.998h.005c4.96 0 8.8 3.801 8.8 8.711 0 6.021-5.44 10.933-13.76 18.217L16 30.145z"/></symbol><symbol id="icon-moon-stars-fill" viewBox="0 0 32 32"><path d="M12 .556c.218.263.35.604.35.976 0 .271-.07.526-.194.748l.004-.008c-1.105 1.992-1.756 4.367-1.756 6.895v.026-.001c0 8.042 6.556 14.554 14.636 14.554 1.054 0 2.08-.11 3.066-.32a1.574 1.574 0 0 1 1.617.627l.003.005a1.464 1.464 0 0 1-.064 1.789l.002-.002c-3.086 3.769-7.739 6.156-12.95 6.156h-.028.001c-9.22 0-16.688-7.428-16.688-16.58 0-6.888 4.228-12.796 10.248-15.3a1.5 1.5 0 0 1 1.749.433l.002.003z"/><path d="M21.588 6.296a.433.433 0 0 1 .823-.003l.001.003.774 2.324a3.472 3.472 0 0 0 2.194 2.194l2.324.774a.433.433 0 0 1 .003.823l-.003.001-2.324.774a3.487 3.487 0 0 0-2.187 2.17l-.007.024-.774 2.324a.433.433 0 0 1-.823.003l-.001-.003-.774-2.324a3.487 3.487 0 0 0-2.17-2.187l-.024-.007-2.324-.774a.433.433 0 0 1-.003-.823l.003-.001 2.324-.774a3.487 3.487 0 0 0 2.187-2.17l.007-.024.774-2.324zM27.726.198a.29.29 0 0 1 .547-.002l.001.002.516 1.548a2.31 2.31 0 0 0 1.464 1.464l1.548.516a.29.29 0 0 1 .002.547l-.002.001-1.548.516a2.321 2.321 0 0 0-1.459 1.448l-.005.016-.516 1.548a.29.29 0 0 1-.547.002l-.001-.002-.516-1.548a2.321 2.321 0 0 0-1.448-1.459l-.016-.005-1.548-.516a.29.29 0 0 1-.002-.547l.002-.001 1.548-.516a2.31 2.31 0 0 0 1.464-1.464L27.726.2z"/></symbol><symbol id="icon-sun-fill" viewBox="0 0 32 32"><path fill="#fff" d="M16 24a8 8 0 0 0 0-16 8 8 0 0 0 0 16zm0-24a1 1 0 0 1 1 1v4a1 1 0 0 1-2 0V1a1 1 0 0 1 1-1zm0 26a1 1 0 0 1 1 1v4a1 1 0 0 1-2 0v-4a1 1 0 0 1 1-1zm16-10a1 1 0 0 1-1 1h-4a1 1 0 0 1 0-2h4a1 1 0 0 1 1 1zM6 16a1 1 0 0 1-1 1H1a1 1 0 0 1 0-2h4a1 1 0 0 1 1 1zM27.314 4.686a.997.997 0 0 1 0 1.414l-2.828 2.83a1 1 0 1 1-1.414-1.416L25.9 4.686a.997.997 0 0 1 1.414 0zM8.928 23.072a.997.997 0 0 1 0 1.414L6.1 27.314A1 1 0 0 1 4.686 25.9l2.828-2.828a.997.997 0 0 1 1.414 0zm18.386 4.242a.997.997 0 0 1-1.414 0l-2.828-2.828a1 1 0 0 1 1.414-1.414l2.828 2.828a.997.997 0 0 1 0 1.414zM8.928 8.93a.997.997 0 0 1-1.414 0L4.686 6.1A1 1 0 1 1 6.1 4.686l2.828 2.828a.998.998 0 0 1 0 1.416z"/></symbol><symbol id="film" viewBox="0 0 32 32"><path fill="none" stroke="#fff" style="stroke:var(--color1)" stroke-linejoin="round" stroke-linecap="round" stroke-width="2.667" d="M26.427 2.667H5.574a2.907 2.907 0 0 0-2.907 2.907v20.853a2.907 2.907 0 0 0 2.907 2.907v0h20.853a2.907 2.907 0 0 0 2.907-2.907v0V5.574a2.907 2.907 0 0 0-2.907-2.907v0zm-17.094 0v26.667M22.667 2.667v26.667M2.667 16h26.667M2.667 9.333h6.667M2.667 22.667h6.667m13.333 0h6.667M22.667 9.333h6.667"/></symbol><symbol id="search" viewBox="0 0 32 32"><path fill="none" stroke="#fff" style="stroke:var(--color1)" stroke-linejoin="round" stroke-linecap="round" stroke-width="2.667" d="M14.667 25.333c5.891 0 10.667-4.776 10.667-10.667S20.558 3.999 14.667 3.999v0C8.776 3.999 4 8.775 4 14.666s4.776 10.667 10.667 10.667v0zM28 28l-5.8-5.8"/></symbol><symbol id="icon-close" viewBox="0 0 32 32"><path stroke-width="2.133" d="m8.533 8.533 14.933 14.933m-14.933.001L23.466 8.534"/></symbol><symbol id="icon-angel-up" viewBox="0 0 32 32"><path d="M31.681 21.933 16.738 6.991c-.213-.214-.459-.321-.737-.321s-.524.107-.738.321L.321 21.933c-.214.214-.321.46-.321.738s.107.524.321.737l1.603 1.603c.214.214.46.321.738.321s.524-.107.738-.321L16.002 12.41l12.602 12.602c.214.214.46.32.737.32s.524-.107.738-.32l1.603-1.603c.214-.214.32-.46.32-.737s-.106-.524-.32-.738z"/></symbol><symbol id="user" viewBox="0 0 32 32"><path d="M18 22.082v-1.649c2.203-1.241 4-4.337 4-7.432 0-4.971 0-9-6-9s-6 4.029-6 9c0 3.096 1.797 6.191 4 7.432v1.649C7.216 22.637 2 25.97 2 30h28c0-4.03-5.216-7.364-12-7.918z"/></symbol></defs></svg>