<svg aria-hidden="true" style="position: absolute; width: 0; height: 0; overflow: hidden;" version="1.1"
  xmlns="http://www.w3.org/2000/svg"
  xmlns:xlink="http://www.w3.org/1999/xlink">
  <defs>
    <symbol id="icon-heart" viewBox="0 0 32 32">
      <path fill="#ff6b08" style="fill: var(--color1, #ff6b08)" d="M16 30.144l-2.24-2.217c-8.32-7.287-13.76-12.201-13.76-18.217 0-4.917 3.84-8.715 8.8-8.715 2.72 0.002 5.44 1.269 7.2 3.326 1.761-2.019 4.329-3.296 7.195-3.323l0.005-0c4.96 0 8.8 3.801 8.8 8.711 0 6.021-5.44 10.933-13.76 18.217l-2.24 2.219z"></path>
    </symbol>
    <symbol id="icon-moon-stars-fill" viewBox="0 0 32 32">
      <path d="M12 0.556c0.218 0.263 0.35 0.604 0.35 0.976 0 0.271-0.070 0.526-0.194 0.748l0.004-0.008c-1.105 1.992-1.756 4.367-1.756 6.895 0 0.009 0 0.017 0 0.026v-0.001c0 8.042 6.556 14.554 14.636 14.554 1.054 0 2.080-0.11 3.066-0.32 0.1-0.023 0.215-0.036 0.333-0.036 0.53 0 0.998 0.262 1.284 0.663l0.003 0.005c0.171 0.237 0.273 0.533 0.273 0.853 0 0.356-0.127 0.682-0.337 0.936l0.002-0.002c-3.086 3.769-7.739 6.156-12.95 6.156-0.009 0-0.019 0-0.028-0h0.001c-9.22 0-16.688-7.428-16.688-16.58 0-6.888 4.228-12.796 10.248-15.3 0.173-0.075 0.374-0.119 0.585-0.119 0.469 0 0.889 0.215 1.164 0.552l0.002 0.003z"></path>
      <path d="M21.588 6.296c0.059-0.174 0.221-0.298 0.412-0.298s0.353 0.123 0.411 0.295l0.001 0.003 0.774 2.324c0.346 1.036 1.158 1.848 2.194 2.194l2.324 0.774c0.174 0.059 0.298 0.221 0.298 0.412s-0.123 0.353-0.295 0.411l-0.003 0.001-2.324 0.774c-1.038 0.353-1.841 1.156-2.187 2.17l-0.007 0.024-0.774 2.324c-0.059 0.174-0.221 0.298-0.412 0.298s-0.353-0.123-0.411-0.295l-0.001-0.003-0.774-2.324c-0.353-1.038-1.156-1.841-2.17-2.187l-0.024-0.007-2.324-0.774c-0.174-0.059-0.298-0.221-0.298-0.412s0.123-0.353 0.295-0.411l0.003-0.001 2.324-0.774c1.038-0.353 1.841-1.156 2.187-2.17l0.007-0.024 0.774-2.324zM27.726 0.198c0.041-0.114 0.148-0.195 0.274-0.195s0.233 0.081 0.273 0.193l0.001 0.002 0.516 1.548c0.23 0.692 0.772 1.234 1.464 1.464l1.548 0.516c0.114 0.041 0.195 0.148 0.195 0.274s-0.081 0.233-0.193 0.273l-0.002 0.001-1.548 0.516c-0.693 0.235-1.229 0.771-1.459 1.448l-0.005 0.016-0.516 1.548c-0.041 0.114-0.148 0.195-0.274 0.195s-0.233-0.081-0.273-0.193l-0.001-0.002-0.516-1.548c-0.235-0.693-0.771-1.229-1.448-1.459l-0.016-0.005-1.548-0.516c-0.114-0.041-0.195-0.148-0.195-0.274s0.081-0.233 0.193-0.273l0.002-0.001 1.548-0.516c0.692-0.23 1.234-0.772 1.464-1.464l0.516-1.546z"></path>
    </symbol>
    <symbol id="icon-sun-fill" viewBox="0 0 32 32">
      <path fill="#fff" d="M16 24c4.418 0 8-3.582 8-8s-3.582-8-8-8v0c-4.418 0-8 3.582-8 8s3.582 8 8 8v0zM16 0c0.552 0 1 0.448 1 1v0 4c0 0.552-0.448 1-1 1s-1-0.448-1-1v0-4c0-0.552 0.448-1 1-1v0zM16 26c0.552 0 1 0.448 1 1v0 4c0 0.552-0.448 1-1 1s-1-0.448-1-1v0-4c0-0.552 0.448-1 1-1v0zM32 16c0 0.552-0.448 1-1 1v0h-4c-0.552 0-1-0.448-1-1s0.448-1 1-1v0h4c0.552 0 1 0.448 1 1v0zM6 16c0 0.552-0.448 1-1 1v0h-4c-0.552 0-1-0.448-1-1s0.448-1 1-1v0h4c0.552 0 1 0.448 1 1v0zM27.314 4.686c0.181 0.181 0.293 0.431 0.293 0.707s-0.112 0.526-0.293 0.707l-2.828 2.83c-0.181 0.181-0.431 0.293-0.707 0.293-0.553 0-1.001-0.448-1.001-1.001 0-0.277 0.112-0.527 0.294-0.708v0l2.828-2.828c0.181-0.181 0.431-0.293 0.707-0.293s0.526 0.112 0.707 0.293v0zM8.928 23.072c0.181 0.181 0.293 0.431 0.293 0.707s-0.112 0.526-0.293 0.707l-2.828 2.828c-0.18 0.174-0.425 0.281-0.695 0.281-0.552 0-1-0.448-1-1 0-0.27 0.107-0.515 0.281-0.695l2.828-2.828c0.181-0.181 0.431-0.293 0.707-0.293s0.526 0.112 0.707 0.293v0zM27.314 27.314c-0.181 0.181-0.431 0.293-0.707 0.293s-0.526-0.112-0.707-0.293l-2.828-2.828c-0.174-0.18-0.281-0.425-0.281-0.695 0-0.552 0.448-1 1-1 0.27 0 0.515 0.107 0.695 0.281l2.828 2.828c0.181 0.181 0.293 0.431 0.293 0.707s-0.112 0.526-0.293 0.707v0zM8.928 8.93c-0.181 0.181-0.431 0.293-0.707 0.293s-0.526-0.112-0.707-0.293v0l-2.828-2.83c-0.188-0.182-0.305-0.437-0.305-0.719 0-0.552 0.448-1 1-1 0.282 0 0.537 0.117 0.719 0.305l2.828 2.828c0.181 0.181 0.294 0.431 0.294 0.708s-0.112 0.527-0.294 0.708l-0 0z"></path>
      <symbol id="film" viewBox="0 0 32 32">
        <path fill="none" stroke="#fff" style="stroke: var(--color1)" stroke-linejoin="round" stroke-linecap="round" stroke-miterlimit="4" stroke-width="2.6667" d="M26.427 2.667h-20.853c-1.605 0-2.907 1.301-2.907 2.907v0 20.853c0 1.605 1.301 2.907 2.907 2.907v0h20.853c1.605 0 2.907-1.301 2.907-2.907v0-20.853c0-1.605-1.301-2.907-2.907-2.907v0zM9.333 2.667v26.667M22.667 2.667v26.667M2.667 16h26.667M2.667 9.333h6.667M2.667 22.667h6.667M22.667 22.667h6.667M22.667 9.333h6.667"></path>
      </symbol>
      <symbol id="search" viewBox="0 0 32 32">
        <path fill="none" stroke="#fff" style="stroke: var(--color1)" stroke-linejoin="round" stroke-linecap="round" stroke-miterlimit="4" stroke-width="2.6667" d="M14.667 25.333c5.891 0 10.667-4.776 10.667-10.667s-4.776-10.667-10.667-10.667v0c-5.891 0-10.667 4.776-10.667 10.667s4.776 10.667 10.667 10.667v0zM28 28l-5.8-5.8"></path>
      </symbol>
      <symbol id="icon-close" viewBox="0 0 32 32">
        <path stroke-linejoin="miter" stroke-linecap="butt" stroke-miterlimit="4" stroke-width="2.1333" d="M8.533 8.533l14.933 14.933M8.533 23.467l14.933-14.933"></path>
      </symbol>
      <symbol id="icon-angel-up" viewBox="0 0 32 32">
        <path d="M31.681 21.933l-14.943-14.942c-0.213-0.214-0.459-0.321-0.737-0.321s-0.524 0.107-0.738 0.321l-14.942 14.942c-0.214 0.214-0.321 0.46-0.321 0.738s0.107 0.524 0.321 0.737l1.603 1.603c0.214 0.214 0.46 0.321 0.738 0.321s0.524-0.107 0.738-0.321l12.602-12.601 12.602 12.602c0.214 0.214 0.46 0.32 0.737 0.32s0.524-0.107 0.738-0.32l1.603-1.603c0.214-0.214 0.32-0.46 0.32-0.737s-0.106-0.524-0.32-0.738z"></path>
      </symbol>
      <symbol id="user" viewBox="0 0 32 32">
        <path d="M18 22.082v-1.649c2.203-1.241 4-4.337 4-7.432 0-4.971 0-9-6-9s-6 4.029-6 9c0 3.096 1.797 6.191 4 7.432v1.649c-6.784 0.555-12 3.888-12 7.918h28c0-4.030-5.216-7.364-12-7.918z"></path>
      </symbol>
    </defs>
  </svg>
